<svg width="80" height="80" viewBox="0 0 80 80" fill="none" xmlns="http://www.w3.org/2000/svg">
<path d="M63.0667 20.0333C62.4 18.0667 60.5333 16.6667 58.3333 16.6667H50V9.99999C50 8.16666 48.5 6.66666 46.6667 6.66666H33.3333C31.5 6.66666 30 8.16666 30 9.99999V16.6667H21.6667C19.4667 16.6667 17.6 18.0667 16.9333 20.0333L10 40V66.6667C10 68.5 11.5 70 13.3333 70H16.6667C18.5 70 20 68.5 20 66.6667V63.3333H60V66.6667C60 68.5 61.5 70 63.3333 70H66.6667C68.5 70 70 68.5 70 66.6667V40L63.0667 20.0333ZM22.8333 23.3333H57.1333L60.7333 33.3333H19.2667L22.8333 23.3333ZM63.3333 56.6667H16.6667V40H63.3333V56.6667Z" fill="#00A651"/>
<path d="M25 53.3333C27.7667 53.3333 30 51.1 30 48.3333C30 45.5666 27.7667 43.3333 25 43.3333C22.2333 43.3333 20 45.5666 20 48.3333C20 51.1 22.2333 53.3333 25 53.3333Z" fill="#00A651"/>
<path d="M55 53.3333C57.7667 53.3333 60 51.1 60 48.3333C60 45.5666 57.7667 43.3333 55 43.3333C52.2333 43.3333 50 45.5666 50 48.3333C50 51.1 52.2333 53.3333 55 53.3333Z" fill="#00A651"/>
</svg>
